<?xml version="1.0" encoding="UTF-8" standalone="no"?>
<!-- Created with Inkscape (http://www.inkscape.org/) -->

<svg
   xmlns:dc="http://purl.org/dc/elements/1.1/"
   xmlns:cc="http://creativecommons.org/ns#"
   xmlns:rdf="http://www.w3.org/1999/02/22-rdf-syntax-ns#"
   xmlns:svg="http://www.w3.org/2000/svg"
   xmlns="http://www.w3.org/2000/svg"
   xmlns:sodipodi="http://sodipodi.sourceforge.net/DTD/sodipodi-0.dtd"
   xmlns:inkscape="http://www.inkscape.org/namespaces/inkscape"
   id="svg8259"
   version="1.1"
   inkscape:version="0.91 r13725"
   width="253.17978mm"
   height="45.916065mm"
   viewBox="0 0 897.09372 162.69472"
   sodipodi:docname="blogHeaderg.svg">
  <metadata
     id="metadata8265">
    <rdf:RDF>
      <cc:Work
         rdf:about="">
        <dc:format>image/svg+xml</dc:format>
        <dc:type
           rdf:resource="http://purl.org/dc/dcmitype/StillImage" />
        <dc:title></dc:title>
      </cc:Work>
    </rdf:RDF>
  </metadata>
  <defs
     id="defs8263">
    <clipPath
       clipPathUnits="userSpaceOnUse"
       id="clipPath10043">
      <path
         d="m -50.858791,-313.5071 c -7.71625,0.13875 -14.085,-6.00625 -14.2225,-13.72375 -0.1375,-7.71625 6.00375,-14.08375 13.7225,-14.2225 7.715,-0.14125 14.0825,6.00375 14.2225,13.72 0.13875,7.71625 -6.00375,14.0875 -13.7225,14.22625 m 76.7,73.49999 -11.75,0.21125 c -15.4475004,-0.9725 -34.52875,-10.9625 -37.78375,-27.54 -3.8225,-19.495 11.12,-34.9875 10.4675,-53.80624 -1.23625,-35.705 -43.5925,-50.78375 -66.35,-23.33375 -24.592499,29.66625 7.875,48.89624 3.22625,78.09249 -2.655,16.67875 -21.36125,27.3475 -36.766249,28.87375 l -11.75,0.2125 c -11.02375,0.19625 -19.8,9.29375 -19.6025,20.31875 l 4.02,223.5650071 c 0.19875,11.0249979 9.2975,19.8024979 20.32125,19.6024979 l 148.711249,-2.675 c 11.0225,-0.19625 21.79375,-9.329998 21.5975,-20.3562479 L 46.161209,-220.40711 c -0.19875,-11.02625 -9.2925,-19.79875 -20.32,-19.6"
         style="fill:#549eaf;fill-opacity:1;fill-rule:nonzero;stroke:none"
         id="path10045"
         inkscape:connector-curvature="0" />
    </clipPath>
    <clipPath
       clipPathUnits="userSpaceOnUse"
       id="clipPath10039">
      <path
         d="m -50.858791,-313.5071 c -7.71625,0.13875 -14.085,-6.00625 -14.2225,-13.72375 -0.1375,-7.71625 6.00375,-14.08375 13.7225,-14.2225 7.715,-0.14125 14.0825,6.00375 14.2225,13.72 0.13875,7.71625 -6.00375,14.0875 -13.7225,14.22625 m 76.7,73.49999 -11.75,0.21125 c -15.4475004,-0.9725 -34.52875,-10.9625 -37.78375,-27.54 -3.8225,-19.495 11.12,-34.9875 10.4675,-53.80624 -1.23625,-35.705 -43.5925,-50.78375 -66.35,-23.33375 -24.592499,29.66625 7.875,48.89624 3.22625,78.09249 -2.655,16.67875 -21.36125,27.3475 -36.766249,28.87375 l -11.75,0.2125 c -11.02375,0.19625 -19.8,9.29375 -19.6025,20.31875 l 4.02,223.5650071 c 0.19875,11.0249979 9.2975,19.8024979 20.32125,19.6024979 l 148.711249,-2.675 c 11.0225,-0.19625 21.79375,-9.329998 21.5975,-20.3562479 L 46.161209,-220.40711 c -0.19875,-11.02625 -9.2925,-19.79875 -20.32,-19.6"
         style="fill:#549eaf;fill-opacity:1;fill-rule:nonzero;stroke:none"
         id="path10041"
         inkscape:connector-curvature="0" />
    </clipPath>
    <clipPath
       clipPathUnits="userSpaceOnUse"
       id="clipPath10035">
      <path
         d="m -50.858791,-313.5071 c -7.71625,0.13875 -14.085,-6.00625 -14.2225,-13.72375 -0.1375,-7.71625 6.00375,-14.08375 13.7225,-14.2225 7.715,-0.14125 14.0825,6.00375 14.2225,13.72 0.13875,7.71625 -6.00375,14.0875 -13.7225,14.22625 m 76.7,73.49999 -11.75,0.21125 c -15.4475004,-0.9725 -34.52875,-10.9625 -37.78375,-27.54 -3.8225,-19.495 11.12,-34.9875 10.4675,-53.80624 -1.23625,-35.705 -43.5925,-50.78375 -66.35,-23.33375 -24.592499,29.66625 7.875,48.89624 3.22625,78.09249 -2.655,16.67875 -21.36125,27.3475 -36.766249,28.87375 l -11.75,0.2125 c -11.02375,0.19625 -19.8,9.29375 -19.6025,20.31875 l 4.02,223.5650071 c 0.19875,11.0249979 9.2975,19.8024979 20.32125,19.6024979 l 148.711249,-2.675 c 11.0225,-0.19625 21.79375,-9.329998 21.5975,-20.3562479 L 46.161209,-220.40711 c -0.19875,-11.02625 -9.2925,-19.79875 -20.32,-19.6"
         style="fill:#549eaf;fill-opacity:1;fill-rule:nonzero;stroke:none"
         id="path10037"
         inkscape:connector-curvature="0" />
    </clipPath>
    <clipPath
       clipPathUnits="userSpaceOnUse"
       id="clipPath10031">
      <path
         d="m -50.858791,-313.5071 c -7.71625,0.13875 -14.085,-6.00625 -14.2225,-13.72375 -0.1375,-7.71625 6.00375,-14.08375 13.7225,-14.2225 7.715,-0.14125 14.0825,6.00375 14.2225,13.72 0.13875,7.71625 -6.00375,14.0875 -13.7225,14.22625 m 76.7,73.49999 -11.75,0.21125 c -15.4475004,-0.9725 -34.52875,-10.9625 -37.78375,-27.54 -3.8225,-19.495 11.12,-34.9875 10.4675,-53.80624 -1.23625,-35.705 -43.5925,-50.78375 -66.35,-23.33375 -24.592499,29.66625 7.875,48.89624 3.22625,78.09249 -2.655,16.67875 -21.36125,27.3475 -36.766249,28.87375 l -11.75,0.2125 c -11.02375,0.19625 -19.8,9.29375 -19.6025,20.31875 l 4.02,223.5650071 c 0.19875,11.0249979 9.2975,19.8024979 20.32125,19.6024979 l 148.711249,-2.675 c 11.0225,-0.19625 21.79375,-9.329998 21.5975,-20.3562479 L 46.161209,-220.40711 c -0.19875,-11.02625 -9.2925,-19.79875 -20.32,-19.6"
         style="fill:#549eaf;fill-opacity:1;fill-rule:nonzero;stroke:none"
         id="path10033"
         inkscape:connector-curvature="0" />
    </clipPath>
    <clipPath
       clipPathUnits="userSpaceOnUse"
       id="clipPath322">
      <path
         d="m 498.75,595.5 19.25,0 0,-21.548 -19.25,0 0,21.548 z"
         id="path324"
         inkscape:connector-curvature="0" />
    </clipPath>
    <clipPath
       clipPathUnits="userSpaceOnUse"
       id="clipPath290">
      <path
         d="m 529.105,634.301 10.236,0 0,-39.661 -10.236,0 0,39.661 z"
         id="path292"
         inkscape:connector-curvature="0" />
    </clipPath>
    <clipPath
       clipPathUnits="userSpaceOnUse"
       id="clipPath1198">
      <path
         d="m 230.168,320.1 7,0 0,-63.821 -7,0 0,63.821 z"
         id="path1200"
         inkscape:connector-curvature="0" />
    </clipPath>
    <clipPath
       clipPathUnits="userSpaceOnUse"
       id="clipPath1102">
      <path
         d="m 295.055,348.1 7,0 0,-91.821 -7,0 0,91.821 z"
         id="path1104"
         inkscape:connector-curvature="0" />
    </clipPath>
  </defs>
  <sodipodi:namedview
     pagecolor="#ffffff"
     bordercolor="#666666"
     borderopacity="1"
     objecttolerance="10"
     gridtolerance="10"
     guidetolerance="10"
     inkscape:pageopacity="0"
     inkscape:pageshadow="2"
     inkscape:window-width="1920"
     inkscape:window-height="1026"
     id="namedview8261"
     showgrid="false"
     showguides="true"
     inkscape:zoom="1.0916667"
     inkscape:cx="296.08077"
     inkscape:cy="-8.0961732"
     inkscape:window-x="0"
     inkscape:window-y="0"
     inkscape:window-maximized="1"
     inkscape:current-layer="layer4"
     fit-margin-top="0"
     fit-margin-left="0"
     fit-margin-right="0"
     fit-margin-bottom="0"
     units="mm" />
  <g
     inkscape:groupmode="layer"
     id="layer3"
     inkscape:label="bck"
     style="display:inline"
     transform="translate(-558.9146,-83.48642)" />
  <g
     inkscape:groupmode="layer"
     id="layer5"
     inkscape:label="middle"
     style="display:inline"
     transform="translate(-558.9146,-83.48642)" />
  <g
     inkscape:groupmode="layer"
     id="layer4"
     inkscape:label="front"
     style="display:inline"
     transform="translate(-558.9146,-83.48642)">
    <path
       inkscape:connector-curvature="0"
       id="path1370"
       style="fill:#dc9c76;fill-opacity:1;fill-rule:nonzero;stroke:none"
       d="m 1343.6558,234.91677 -779.7412,0 c -2.75,0 -5,-2.25 -5,-5 l 0,-14.63 c 0,-2.75 2.25,-5 5,-5 l 779.7412,0 c 2.75,0 5,2.25 5,5 l 0,14.63 c 0,2.75 -2.25,5 -5,5" />
    <path
       inkscape:connector-curvature="0"
       id="path1374"
       style="fill:#bf866a;fill-opacity:1;fill-rule:nonzero;stroke:none"
       d="m 711.1293,246.18114 -88.1612,0 c -0.6875,0 -1.25,-0.5625 -1.25,-1.25 l 0,-8.69 c 0,-0.6875 0.5625,-1.25 1.25,-1.25 l 88.1612,0 c 0.6875,0 1.25,0.5625 1.25,1.25 l 0,8.69 c 0,0.6875 -0.5625,1.25 -1.25,1.25" />
    <path
       inkscape:connector-curvature="0"
       id="path1382"
       style="fill:#bf866a;fill-opacity:1;fill-rule:nonzero;stroke:none"
       d="m 644.8055,222.60164 c 0,2.475 -2.0063,4.48125 -4.4813,4.48125 -2.475,0 -4.4812,-2.00625 -4.4812,-4.48125 0,-2.475 2.0062,-4.48125 4.4812,-4.48125 2.475,0 4.4813,2.00625 4.4813,4.48125" />
    <path
       inkscape:connector-curvature="0"
       id="path1386"
       style="fill:#bf866a;fill-opacity:1;fill-rule:nonzero;stroke:none"
       d="m 697.0166,222.60164 c 0,2.475 -2.0063,4.48125 -4.4813,4.48125 -2.475,0 -4.4812,-2.00625 -4.4812,-4.48125 0,-2.475 2.0062,-4.48125 4.4812,-4.48125 2.475,0 4.4813,2.00625 4.4813,4.48125" />
    <path
       inkscape:connector-curvature="0"
       id="path1390"
       style="fill:#bf866a;fill-opacity:1;fill-rule:nonzero;stroke:none"
       d="m 1215.8946,222.60164 c 0,2.475 -2.0063,4.48125 -4.4813,4.48125 -2.475,0 -4.4812,-2.00625 -4.4812,-4.48125 0,-2.475 2.0062,-4.48125 4.4812,-4.48125 2.475,0 4.4813,2.00625 4.4813,4.48125" />
    <path
       inkscape:connector-curvature="0"
       id="path1394"
       style="fill:#bf866a;fill-opacity:1;fill-rule:nonzero;stroke:none"
       d="m 1268.1057,222.60164 c 0,2.475 -2.0062,4.48125 -4.4812,4.48125 -2.475,0 -4.4813,-2.00625 -4.4813,-4.48125 0,-2.475 2.0063,-4.48125 4.4813,-4.48125 2.475,0 4.4812,2.00625 4.4812,4.48125" />
    <g
       id="g3513"
       transform="translate(0,-2)">
      <path
         d="m 1367.5755,129.91339 -103.33,10.2375 c -2.0525,0.2025 -3.8975,-1.31 -4.1012,-3.3625 l -0.445,-4.4925 c -0.2037,-2.0525 1.31,-3.8975 3.3625,-4.10125 l 103.3288,-10.2375 c 2.0525,-0.2025 3.8987,1.31 4.1025,3.3625 l 0.445,4.4925 c 0.2025,2.0525 -1.31,3.8975 -3.3625,4.10125"
         style="fill:#5c4b51;fill-opacity:1;fill-rule:nonzero;stroke:none"
         id="path280"
         inkscape:connector-curvature="0" />
      <path
         d="m 1302.8539,178.07439 -88.9162,8.80875 c -3.9613,0.3925 -7.5225,-2.52625 -7.915,-6.4875 l -4.5863,-46.2925 c -0.775,-7.82125 -0.7137,-7.20125 6.4875,-7.915 l 88.9163,-8.80875 c 7.2012,-0.71375 7.2137,-0.5875 7.915,6.4875 l 4.5862,46.2925 c 0.3925,3.96125 -2.5262,7.5225 -6.4875,7.915"
         style="fill:#8cbeb2;fill-opacity:1;fill-rule:nonzero;stroke:none"
         id="path284"
         inkscape:connector-curvature="0" />
      <g
         style="opacity:0.30000299"
         id="g296"
         clip-path="url(#clipPath290)"
         transform="matrix(1.25,0,0,-1.25,546.42492,924.34764)">
        <g
           id="g298"
           transform="translate(532.6051,630.8011)">
          <path
             inkscape:connector-curvature="0"
             id="path300"
             style="fill:none;stroke:#ffffff;stroke-width:7;stroke-linecap:round;stroke-linejoin:round;stroke-miterlimit:10;stroke-dasharray:none;stroke-opacity:1"
             d="M 0,0 3.236,-32.661" />
        </g>
      </g>
      <path
         d="m 1417.5734,163.25776 -103.3187,10.35375 c -2.0513,0.20625 -3.8988,-1.305 -4.105,-3.3575 l -0.45,-4.49125 c -0.205,-2.0525 1.305,-3.9 3.3575,-4.105 l 103.3187,-10.355 c 2.0513,-0.205 3.8988,1.30625 4.105,3.3575 l 0.45,4.4925 c 0.205,2.0525 -1.305,3.89875 -3.3575,4.105"
         style="fill:#5c4b51;fill-opacity:1;fill-rule:nonzero;stroke:none"
         id="path304"
         inkscape:connector-curvature="0" />
      <path
         d="m 1322.5768,186.14164 -128.8337,12.91125 c -8.6675,0.86875 -16.4688,-5.51125 -17.3375,-14.17875 l -0.1788,-1.7825 c -1.5787,-15.7575 -1.5787,-15.7575 14.1788,-17.33625 l 128.8337,-12.91125 c 15.7588,-1.58 15.8688,-0.47875 17.3375,14.1775 l 0.1788,1.7825 c 0.8687,8.6675 -5.5125,16.46875 -14.1788,17.3375"
         style="fill:#f06060;fill-opacity:1;fill-rule:nonzero;stroke:none"
         id="path308"
         inkscape:connector-curvature="0" />
      <path
         d="m 1452.2583,195.59764 -103.8362,0 c -2.0625,0 -3.75,-1.6875 -3.75,-3.75 l 0,-4.51375 c 0,-2.0625 1.6875,-3.75 3.75,-3.75 l 103.8362,0 c 2.0625,0 3.75,1.6875 3.75,3.75 l 0,4.51375 c 0,2.0625 -1.6875,3.75 -3.75,3.75"
         style="fill:#5c4b51;fill-opacity:1;fill-rule:nonzero;stroke:none"
         id="path312"
         inkscape:connector-curvature="0" />
      <path
         d="m 1330.9799,212.69376 -152.19,0 c -10.2387,0 -18.615,-8.37625 -18.615,-18.615 l 0,-2.105 c 0,-18.615 0,-18.615 18.615,-18.615 l 152.19,0 c 18.615,0 18.615,1.30125 18.615,18.615 l 0,2.105 c 0,10.23875 -8.3775,18.615 -18.615,18.615"
         style="fill:#f3b562;fill-opacity:1;fill-rule:nonzero;stroke:none"
         id="path316"
         inkscape:connector-curvature="0" />
      <g
         style="opacity:0.30000299"
         id="g328"
         clip-path="url(#clipPath322)"
         transform="matrix(1.25,0,0,-1.25,546.42492,924.34764)">
        <g
           id="g330"
           transform="translate(502.25,592)">
          <path
             inkscape:connector-curvature="0"
             id="path332"
             style="fill:none;stroke:#ffffff;stroke-width:7;stroke-linecap:round;stroke-linejoin:round;stroke-miterlimit:10;stroke-dasharray:none;stroke-opacity:1"
             d="m 0,0 0,-7 c 0,0 0,-8.25 12.25,-7.5" />
        </g>
      </g>
    </g>
    <g
       id="g10425"
       transform="matrix(0.66991239,0,0,0.66991239,-189.60938,-267.3187)">
      <path
         d="m 1326.0985,712.78422 -57.5,0 c -2.0625,0 -3.75,-1.6875 -3.75,-3.75 l 0,-122.3 c 0,-2.0625 1.6875,-3.75 3.75,-3.75 l 57.5,0 c 2.0625,0 3.75,1.6875 3.75,3.75 l 0,122.3 c 0,2.0625 -1.6875,3.75 -3.75,3.75"
         style="fill:#8cbeb2;fill-opacity:1;fill-rule:nonzero;stroke:none"
         id="path1084"
         inkscape:connector-curvature="0" />
      <path
         d="m 1328.5985,582.98372 -62.5,0 c -2.0625,0 -3.75,-1.6875 -3.75,-3.75 l 0,-2.155 c 0,-2.0625 1.6875,-3.75 3.75,-3.75 l 62.5,0 c 2.0625,0 3.75,1.6875 3.75,3.75 l 0,2.155 c 0,2.0625 -1.6875,3.75 -3.75,3.75"
         style="fill:#dc9c76;fill-opacity:1;fill-rule:nonzero;stroke:none"
         id="path1088"
         inkscape:connector-curvature="0" />
      <path
         d="m 1303.1988,570.01235 c 0,3.23125 -2.6188,5.85 -5.85,5.85 -3.2313,0 -5.85,-2.61875 -5.85,-5.85 0,-3.23125 2.6187,-5.85 5.85,-5.85 3.2312,0 5.85,2.61875 5.85,5.85"
         style="fill:#dc9c76;fill-opacity:1;fill-rule:nonzero;stroke:none"
         id="path1092"
         inkscape:connector-curvature="0" />
      <path
         d="m 1325.4735,650.30797 0,55 c 0,2.0625 -1.6875,3.75 -3.75,3.75 l -48.0475,0 c -2.0625,0 -3.75,-1.6875 -3.75,-3.75 l 0,-55 c 0,0 13.4563,-2.8125 29.7063,1.875 16.25,4.6875 25.8412,-1.875 25.8412,-1.875"
         style="fill:#ededed;fill-opacity:1;fill-rule:nonzero;stroke:none"
         id="path1096"
         inkscape:connector-curvature="0" />
      <g
         style="opacity:0.30000299"
         id="g1108"
         clip-path="url(#clipPath1102)"
         transform="matrix(1.25,0,0,-1.25,902.44515,1024.9955)">
        <g
           id="g1110"
           transform="translate(298.5551,344.5996)">
          <path
             inkscape:connector-curvature="0"
             id="path1112"
             style="fill:none;stroke:#ffffff;stroke-width:7;stroke-linecap:round;stroke-linejoin:round;stroke-miterlimit:10;stroke-dasharray:none;stroke-opacity:1"
             d="M 0,0 0,-84.821" />
        </g>
      </g>
      <path
         d="m 1244.9893,712.78422 -57.5,0 c -2.0625,0 -3.75,-1.6875 -3.75,-3.75 l 0,-87.3 c 0,-2.0625 1.6875,-3.75 3.75,-3.75 l 57.5,0 c 2.0625,0 3.75,1.6875 3.75,3.75 l 0,87.3 c 0,2.0625 -1.6875,3.75 -3.75,3.75"
         style="fill:#8cbeb2;fill-opacity:1;fill-rule:nonzero;stroke:none"
         id="path1180"
         inkscape:connector-curvature="0" />
      <path
         d="m 1247.4893,617.98372 -62.5,0 c -2.0625,0 -3.75,-1.6875 -3.75,-3.75 l 0,-2.155 c 0,-2.0625 1.6875,-3.75 3.75,-3.75 l 62.5,0 c 2.0625,0 3.75,1.6875 3.75,3.75 l 0,2.155 c 0,2.0625 -1.6875,3.75 -3.75,3.75"
         style="fill:#f3b562;fill-opacity:1;fill-rule:nonzero;stroke:none"
         id="path1184"
         inkscape:connector-curvature="0" />
      <path
         d="m 1222.0895,605.01235 c 0,3.23125 -2.6187,5.85 -5.85,5.85 -3.2312,0 -5.85,-2.61875 -5.85,-5.85 0,-3.23125 2.6188,-5.85 5.85,-5.85 3.2313,0 5.85,2.61875 5.85,5.85"
         style="fill:#f3b562;fill-opacity:1;fill-rule:nonzero;stroke:none"
         id="path1188"
         inkscape:connector-curvature="0" />
      <path
         d="m 1244.0134,632.80797 0,72.5 c 0,2.0625 -1.6875,3.75 -3.75,3.75 l -48.0475,0 c -2.0625,0 -3.75,-1.6875 -3.75,-3.75 l 0,-72.5 c 0,0 13.4562,-2.8125 29.7062,1.875 16.25,4.6875 25.8413,-1.875 25.8413,-1.875"
         style="fill:#5c4b51;fill-opacity:1;fill-rule:nonzero;stroke:none"
         id="path1192"
         inkscape:connector-curvature="0" />
      <g
         style="opacity:0.30000299"
         id="g1204"
         clip-path="url(#clipPath1198)"
         transform="matrix(1.25,0,0,-1.25,902.44515,1024.9955)">
        <g
           id="g1206"
           transform="translate(233.6677,316.5996)">
          <path
             inkscape:connector-curvature="0"
             id="path1208"
             style="fill:none;stroke:#ffffff;stroke-width:7;stroke-linecap:round;stroke-linejoin:round;stroke-miterlimit:10;stroke-dasharray:none;stroke-opacity:1"
             d="M 0,0 0,-56.821" />
        </g>
      </g>
    </g>
    <path
       d="m 711.1293,246.18114 -88.1612,0 c -0.6875,0 -1.25,-0.5625 -1.25,-1.25 l 0,-8.69 c 0,-0.6875 0.5625,-1.25 1.25,-1.25 l 88.1612,0 c 0.6875,0 1.25,0.5625 1.25,1.25 l 0,8.69 c 0,0.6875 -0.5625,1.25 -1.25,1.25"
       style="fill:#bf866a;fill-opacity:1;fill-rule:nonzero;stroke:none"
       id="path3480"
       inkscape:connector-curvature="0" />
    <path
       d="m 1282.3715,246.10125 -88.1612,0 c -0.6875,0 -1.25,-0.5625 -1.25,-1.25 l 0,-8.69 c 0,-0.6875 0.5625,-1.25 1.25,-1.25 l 88.1612,0 c 0.6875,0 1.25,0.5625 1.25,1.25 l 0,8.69 c 0,0.6875 -0.5625,1.25 -1.25,1.25"
       style="display:inline;fill:#bf866a;fill-opacity:1;fill-rule:nonzero;stroke:none"
       id="path3480-6"
       inkscape:connector-curvature="0" />
    <text
       xml:space="preserve"
       style="font-style:normal;font-weight:normal;font-size:10px;line-height:125%;font-family:sans-serif;letter-spacing:0px;word-spacing:0px;fill:#000000;fill-opacity:1;stroke:none;stroke-width:1px;stroke-linecap:butt;stroke-linejoin:miter;stroke-opacity:1"
       x="761.98322"
       y="162.82236"
       id="text4187"
       sodipodi:linespacing="125%"><tspan
         sodipodi:role="line"
         id="tspan4189"
         x="761.98322"
         y="162.82236"
         style="font-style:normal;font-variant:normal;font-weight:normal;font-stretch:normal;font-size:80px;font-family:'Delicious Curls Bold';-inkscape-font-specification:'Delicious Curls Bold, '">Fabilicious</tspan></text>
  </g>
</svg>
