<?xml version="1.0" encoding="UTF-8" standalone="no"?>
<!-- Created with Inkscape (http://www.inkscape.org/) -->

<svg
   xmlns:dc="http://purl.org/dc/elements/1.1/"
   xmlns:cc="http://creativecommons.org/ns#"
   xmlns:rdf="http://www.w3.org/1999/02/22-rdf-syntax-ns#"
   xmlns:svg="http://www.w3.org/2000/svg"
   xmlns="http://www.w3.org/2000/svg"
   xmlns:sodipodi="http://sodipodi.sourceforge.net/DTD/sodipodi-0.dtd"
   xmlns:inkscape="http://www.inkscape.org/namespaces/inkscape"
   width="507.26514mm"
   height="17.440887mm"
   viewBox="0 0 1797.3962 61.79842"
   id="svg4271"
   version="1.1"
   inkscape:version="0.91 r13725"
   sodipodi:docname="line.svg">
  <defs
     id="defs4273" />
  <sodipodi:namedview
     id="base"
     pagecolor="#ffffff"
     bordercolor="#666666"
     borderopacity="1.0"
     inkscape:pageopacity="0.0"
     inkscape:pageshadow="2"
     inkscape:zoom="0.7"
     inkscape:cx="479.16883"
     inkscape:cy="-4.6263025"
     inkscape:document-units="px"
     inkscape:current-layer="layer1"
     showgrid="false"
     fit-margin-top="0"
     fit-margin-left="0"
     fit-margin-right="0"
     fit-margin-bottom="0"
     inkscape:window-width="1920"
     inkscape:window-height="1026"
     inkscape:window-x="0"
     inkscape:window-y="0"
     inkscape:window-maximized="1" />
  <metadata
     id="metadata4276">
    <rdf:RDF>
      <cc:Work
         rdf:about="">
        <dc:format>image/svg+xml</dc:format>
        <dc:type
           rdf:resource="http://purl.org/dc/dcmitype/StillImage" />
        <dc:title></dc:title>
      </cc:Work>
    </rdf:RDF>
  </metadata>
  <g
     inkscape:label="Layer 1"
     inkscape:groupmode="layer"
     id="layer1"
     transform="translate(638.6981,-251.463)">
    <path
       style="fill:#000000;stroke-width:2.70000005;stroke-miterlimit:4;stroke-dasharray:none"
       id="path4260"
       d="m -476.6538,310.5537 c -25.4631,-0.3064 -50.92903,-0.275 -76.3935,-0.2308 -11.07318,-0.1334 -22.15051,0.2734 -33.22321,0.18 -48.84015,-0.4119 -34.2249,7.8078 -50.8157,-2.3201 -0.53708,-1.1294 -1.59544,-2.1378 -1.61124,-3.3883 -0.1633,-12.928 30.60735,-16.5597 39.05906,-18.152 25.58946,-4.0326 51.50616,-5.0896 77.36481,-5.6515 44.50849,-0.4564 89.02169,-0.1179 133.53164,0.023 42.58604,0.09 1245.17214,0.072 1287.75834,0.088 29.0122,0.034 58.0244,0.034 87.0366,0 6.6891,-0.01 26.7436,0.3841 20.0672,-0.027 -6.9795,-0.4299 -13.9854,-0.019 -20.9781,-0.029 23.1916,-0.089 46.482,1.1075 69.3691,-3.5138 15.2218,-3.0734 17.6476,-4.6004 32.0773,-9.9381 21.4289,-9.8436 10.7612,-4.4862 31.9733,-16.1311 l 40.1363,4.2631 0,0 c -20.9213,12.0685 -10.383,6.4938 -31.5854,16.7797 -14.6592,5.7672 -16.8121,7.2609 -32.298,10.7393 -23.0206,5.1707 -46.4631,4.2546 -69.8852,4.1026 -54.9847,-0.027 -1269.96922,-0.1124 -1324.95386,-0.066 -42.65159,0 -85.30314,-0.057 -127.95472,-0.06 -9.02375,0.01 -77.623,-0.3118 -14.98602,0.1079 4.47588,0.03 -8.95194,0.018 -13.42789,0.032 -4.10591,0.014 -8.21183,0.027 -12.31768,0.053 -3.94575,0.025 -7.89138,0.067 -11.83706,0.1 -25.90199,0.4318 -51.87469,1.1522 -77.54533,4.9364 -10.38916,1.8421 -20.19112,3.6977 -30.02621,7.5728 -1.45355,0.5728 -2.83412,1.3249 -4.30123,1.8619 -0.43934,0.1609 -1.32903,-0.2444 -1.38621,0.22 -0.0613,0.4977 0.83825,0.5509 1.25738,0.8264 15.53905,2.9932 2.92223,0.3952 -37.24698,0.674 -1.97133,0.014 3.94265,0.03 5.91399,0.043 9.86064,0.062 19.72139,0.1132 29.5822,0.1374 24.49289,0.042 48.98778,0.094 73.47907,-0.2308 l 44.16725,6.9954 z"
       inkscape:connector-curvature="0"
       sodipodi:nodetypes="ccscscccccccscccccscccscscccccccccccc" />
  </g>
</svg>
